<?xml version="1.0" encoding="UTF-8" standalone="no"?><!DOCTYPE svg PUBLIC "-//W3C//DTD SVG 1.1//EN" "http://www.w3.org/Graphics/SVG/1.1/DTD/svg11.dtd"><svg width="100%" height="100%" viewBox="0 0 512 512" version="1.1" xmlns="http://www.w3.org/2000/svg" xmlns:xlink="http://www.w3.org/1999/xlink" xml:space="preserve" xmlns:serif="http://www.serif.com/" style="fill-rule:evenodd;clip-rule:evenodd;stroke-linejoin:round;stroke-miterlimit:1.41421;"><rect id="resize" x="0" y="0" width="512" height="512" style="fill:none;"/><g id="resize1" serif:id="resize"><path d="M153.779,213.257c0,0 -26.59,26.59 -44.949,44.949c-2.86,2.86 -7.161,3.716 -10.898,2.168c-3.737,-1.548 -6.173,-5.194 -6.173,-9.239c0,-40.684 0,-121.22 0,-149.376c0,-5.523 4.477,-10 10,-10l149.376,0c4.045,0 7.691,2.436 9.239,6.173c1.548,3.737 0.692,8.038 -2.168,10.898c-18.359,18.359 -44.949,44.949 -44.949,44.949l144.964,144.964c0,0 26.59,-26.59 44.949,-44.949c2.86,-2.86 7.161,-3.716 10.898,-2.168c3.737,1.548 6.173,5.194 6.173,9.239c0,40.684 0,121.22 0,149.376c0,5.523 -4.477,10 -10,10l-149.376,0c-4.045,0 -7.691,-2.436 -9.239,-6.173c-1.548,-3.737 -0.692,-8.038 2.168,-10.898c18.359,-18.359 44.949,-44.949 44.949,-44.949l-144.964,-144.964Z" style="fill:#fff;"/></g></svg>