<?xml version="1.0" encoding="UTF-8" standalone="no"?><!DOCTYPE svg PUBLIC "-//W3C//DTD SVG 1.1//EN" "http://www.w3.org/Graphics/SVG/1.1/DTD/svg11.dtd"><svg width="100%" height="100%" viewBox="0 0 512 512" version="1.1" xmlns="http://www.w3.org/2000/svg" xmlns:xlink="http://www.w3.org/1999/xlink" xml:space="preserve" xmlns:serif="http://www.serif.com/" style="fill-rule:evenodd;clip-rule:evenodd;stroke-linejoin:round;stroke-miterlimit:1.41421;"><rect id="rotate" x="0" y="0" width="512" height="512" style="fill:none;"/><g id="rotate1" serif:id="rotate"><path d="M77.078,256c0,106.039 85.962,192 192,192c105.968,0 192,-86.032 192,-192c0,-105.968 -86.032,-192 -192,-192c-27.219,0 -54.086,5.787 -78.832,16.93c-2.495,1.132 -4.415,3.238 -5.312,5.826c-0.896,2.589 -0.691,5.432 0.569,7.864c6.907,13.36 19.704,38.067 26.439,51.07c2.397,4.627 7.946,6.638 12.75,4.621c14.022,-5.903 29.111,-8.955 44.386,-8.955c63.274,0 114.645,51.37 114.645,114.644c0,63.274 -51.371,114.644 -114.645,114.644c-63.316,0 -114.644,-51.328 -114.644,-114.644l-77.356,0Z" style="fill:#fff;"/><path d="M57.242,211.069c0.323,-3.16 2.128,-5.979 4.863,-7.595c2.736,-1.615 6.076,-1.835 8.999,-0.592c30.083,12.793 106.694,45.373 141.913,60.351c3.472,1.476 5.818,4.781 6.065,8.546c0.248,3.764 -1.644,7.348 -4.893,9.267c-36.366,21.478 -121.209,71.586 -157.575,93.064c-3.249,1.919 -7.301,1.846 -10.478,-0.188c-3.177,-2.035 -4.939,-5.684 -4.556,-9.438c3.887,-38.074 12.342,-120.894 15.662,-153.415Z" style="fill:#fff;"/></g></svg>