<?xml version="1.0" encoding="UTF-8" standalone="no"?>
<!DOCTYPE svg PUBLIC "-//W3C//DTD SVG 1.1//EN" "http://www.w3.org/Graphics/SVG/1.1/DTD/svg11.dtd">
<svg width="100%" height="100%" viewBox="0 0 24 24" version="1.1" xmlns="http://www.w3.org/2000/svg" xmlns:xlink="http://www.w3.org/1999/xlink" xml:space="preserve" xmlns:serif="http://www.serif.com/" style="fill-rule:evenodd;clip-rule:evenodd;stroke-linejoin:round;stroke-miterlimit:1.41421;">
    <path d="M19,24L5,24C3.896,24 3,23.104 3,22L3,6.625C3,6.459 3.066,6.3 3.183,6.183C3.3,6.066 3.459,6 3.625,6C6.4,6 17.6,6 20.375,6C20.541,6 20.7,6.066 20.817,6.183C20.934,6.3 21,6.459 21,6.625C21,9.578 21,22 21,22C21,23.104 20.104,24 19,24M10,10C10,9.448 9.552,9 9,9C8.448,9 8,9.448 8,10L8,19C8,19.552 8.448,20 9,20C9.552,20 10,19.552 10,19L10,10ZM16,10C16,9.448 15.552,9 15,9C14.448,9 14,9.448 14,10L14,19C14,19.552 14.448,20 15,20C15.552,20 16,19.552 16,19L16,10ZM22,4.375C22,4.541 21.934,4.7 21.817,4.817C21.7,4.934 21.541,5 21.375,5C18.391,5 5.609,5 2.625,5C2.459,5 2.3,4.934 2.183,4.817C2.066,4.7 2,4.541 2,4.375C2,4.136 2,3.864 2,3.625C2,3.28 2.28,3 2.625,3C4.161,3 8,3 8,3L8,1.5C8,0.673 8.673,0 9.5,0L14.5,0C15.325,0 16,0.671 16,1.5L16,3L21.375,3C21.72,3 22,3.28 22,3.625C22,3.864 22,4.136 22,4.375ZM10,2.5C10,2.633 10.053,2.76 10.146,2.854C10.24,2.947 10.367,3 10.5,3C11.269,3 12.731,3 13.5,3C13.633,3 13.76,2.947 13.854,2.854C13.947,2.76 14,2.633 14,2.5C14,2.367 13.947,2.24 13.854,2.146C13.76,2.053 13.633,2 13.5,2C12.731,2 11.269,2 10.5,2C10.367,2 10.24,2.053 10.146,2.146C10.053,2.24 10,2.367 10,2.5C10,2.5 10,2.5 10,2.5Z" style="fill:white;"/>
</svg>
